# xmcd
#
# Track frame offsets: 
#        182
#        18292
#        37347
#        56987
#        73682
#        96770
#        117670
#        139407
#        154997
#        172165
#
# Disc length: 2478 seconds
#
# Revision: 0
# Processed by: cddbd v1.5.2PL0 Copyright (c) Steve Scherf et al.
# Submitted via: ExactAudioCopy v0.99pb5
#
DISCID=9d09ac0a
DTITLE=Rolling Hayseeds - Tangled Up In You
DYEAR=1996
DGENRE=Alt. Rock
TTITLE0=Dead of Night
TTITLE1=Without You
TTITLE2=Red, White and Blue
TTITLE3=Don't You Know?
TTITLE4=Last Place
TTITLE5=Tangled Up In You
TTITLE6=Laughing with Me
TTITLE7=A Man of Few Words
TTITLE8=This Time Yesterday
TTITLE9=Perfect Plan
EXTD=
EXTT0=
EXTT1=
EXTT2=
EXTT3=
EXTT4=
EXTT5=
EXTT6=
EXTT7=
EXTT8=
EXTT9=
PLAYORDER=
